<?xml version="1.0" encoding="utf-8"?>
<!-- Generator: Adobe Illustrator 15.0.0, SVG Export Plug-In . SVG Version: 6.00 Build 0)  -->
<!DOCTYPE svg PUBLIC "-//W3C//DTD SVG 1.1//EN" "http://www.w3.org/Graphics/SVG/1.1/DTD/svg11.dtd">
<svg version="1.1" id="Layer_1" xmlns="http://www.w3.org/2000/svg" xmlns:xlink="http://www.w3.org/1999/xlink" x="0px" y="0px"
	 width="1984.25px" height="1984.25px" viewBox="0 0 1984.25 1984.25" enable-background="new 0 0 1984.25 1984.25"
	 xml:space="preserve">
<g transform="translate(-112.64-3.69)">
	<path fill="#ED8117" d="M612.637,1787.784c103.653,73.554,293.71-18.157,428.442-204.729c1.901-2.472,3.942-4.78,5.727-7.37
		c74.112-105.903,48.573-252.321-56.922-327.192c-105.497-74.871-251.074-49.692-325.082,56.188
		c-1.82,2.601-3.313,5.307-5.003,7.953C530.711,1503.241,508.996,1714.302,612.637,1787.784"/>
	<path fill="#EEBB18" d="M718.669,1646.708c72.142,49.949,205.324-13.621,300.206-141.998c1.388-1.702,2.811-3.289,4.106-5.073
		c51.454-71.136,35.499-170.516-35.638-221.97c-0.942-0.681-1.89-1.352-2.847-2.013c-73.471-50.917-175.34-33.085-227.504,39.768
		c-1.33,1.796-2.333,3.651-3.499,5.446C662.493,1451.987,646.482,1596.725,718.669,1646.708"/>
	<g>
		<path fill="#5B6A72" d="M270.728,1040.534c-10.881,13.995-16.245,35.08,13.318,25.879
			c84.328-26.229,275.506-56.842,497.412,97.087c299.716,207.866,275.377-330.901,275.377-330.901
			C985.662,783.28,627.542,583.088,270.728,1040.534"/>
		<path fill="#5B6A72" d="M1410.081,1852.767c1.271,30.449,19.243,18.483,28.666,3.767c308.51-482.136,1.353-747.752-68.667-797.315
			c0,0-512.083,155.852-217.312,364.744C1371.024,1578.614,1406.396,1765.942,1410.081,1852.767"/>
	</g>
	<path fill="#DCF2F9" d="M1098.749,1505.679c58.52,43.266,93.916,50.321,136.447-2.217
		c42.531-52.537,266.211-314.877,489.681-604.097c223.469-289.22,87.151-786.913,60.328-806.738l-0.35,0.42l0.232-0.525
		c-26.823-19.826-519.699,13.167-704.134,331.204c-184.437,318.038-344.686,627.224-377.514,686.888
		c-32.83,59.662-14.59,92.34,43.918,135.571c26.66,19.65,101.729,75.115,175.69,129.741
		C997.009,1430.551,1072.089,1486.028,1098.749,1505.679"/>
	<path fill="#5B6A72" d="M1164.698,1569.587h-2.426c-26.705-0.724-54.554-12.666-93.11-39.954
		c-27.114-19.174-102.626-72.609-177.928-125.951l-4.433-3.138l-118.464-83.803l-63.955-45.25
		c-38.485-27.267-59.068-49.552-68.702-74.545c-15.079-39.091,1.167-74.94,14.66-98.509c7.079-12.339,20.035-35.675,37.96-67.968
		c65.879-118.708,202.921-365.734,354.401-615.934c54.508-90.043,137.857-165.602,247.737-224.694
		c58.077-31.208,155.106-74.171,287.238-101.636c52.234-10.857,105.775-18.216,150.757-20.747
		c68.946-3.871,81.179,4.805,87.069,8.979l0.548,0.396c6.04,4.304,18.158,14.135,37.318,79.233
		c12.829,43.628,23.966,96.994,31.359,150.266c20.292,146.126,30.917,420.279-125.869,614.593
		c-183.516,227.551-368.885,440.42-457.972,542.662c-24.257,27.86-41.785,47.978-50.963,58.835
		c-13.365,15.803-26.485,27.231-40.117,34.986C1196.096,1565.347,1180.542,1569.546,1164.698,1569.587 M1761.158,124.651
		c-48.27,0-153.776,9.948-272.766,46.379c-128.983,39.453-302.387,118.989-395.917,273.605
		c-150.942,249.254-287.658,495.64-353.362,614.033c-18.041,32.515-31.08,55.978-38.369,68.701
		c-15.697,27.359-13.995,40.375-10.845,48.655c5.073,13.143,20.339,28.397,48.048,48.013l63.966,45.249l118.464,83.804l4.444,3.148
		c75.301,53.296,150.802,106.72,177.917,125.951c57.145,40.433,74.09,36.666,102.802,2.74c9.446-11.172,27.091-31.488,51.512-59.478
		c88.853-102.008,273.732-314.281,456.514-540.922c113.472-140.668,129.612-331.566,123.187-466.94
		c-6.997-146.639-41.902-263.284-55.851-292.112c-6.562-0.63-13.151-0.922-19.743-0.875"/>
	<path fill="#FEFEFE" d="M1279.198,792.412c93.378,65.821,222.407,43.441,288.054-49.949
		c65.646-93.39,43.371-222.419-50.008-288.241c-93.378-65.82-222.361-43.487-288.055,49.938
		C1163.497,597.585,1185.853,726.579,1279.198,792.412"/>
	<path fill="#5B6A72" d="M1397.812,859.4c-130.413-0.383-235.823-106.413-235.441-236.825
		c0.142-48.409,15.158-95.605,43.017-135.196c74.915-106.498,221.979-132.1,328.478-57.185c0.084,0.06,0.169,0.12,0.255,0.18
		c106.393,74.999,131.979,222.536,57.039,328.872c-35.885,51.297-90.816,86.089-152.529,96.609
		C1425.151,858.202,1411.495,859.389,1397.812,859.4 M1398.547,445.557c-10.3,0-20.582,0.885-30.73,2.648
		c-46.426,7.932-87.745,34.123-114.731,72.724c-56.363,80.095-37.109,191.189,42.929,247.633
		c80.113,56.493,190.855,37.344,247.349-42.771c0.028-0.041,0.057-0.082,0.086-0.122c56.433-80.085,37.155-191.154-42.951-247.622
		C1470.7,456.919,1435.076,445.566,1398.547,445.557"/>
</g>
</svg>
